<svg xmlns="http://www.w3.org/2000/svg" viewBox="0 0 100 100" width="100" height="100">
  <defs>
    <linearGradient id="trunkGrad" gradientUnits="userSpaceOnUse" x1="50" y1="50" x2="50" y2="90">
      <stop offset="0" stop-color="#163C11"/>
      <stop offset="0.4" stop-color="#20290C"/>
      <stop offset="1" stop-color="#2A1608"/>
    </linearGradient>
    <filter id="olGreen" x="-20%" y="-20%" width="140%" height="140%">
      <feMorphology in="SourceAlpha" operator="dilate" radius="2" result="d"/>
      <feFlood flood-color="#86D466"/>
      <feComposite in2="d" operator="in" result="o"/>
      <feMerge>
        <feMergeNode in="o"/>
        <feMergeNode in="SourceGraphic"/>
      </feMerge>
    </filter>
    <filter id="olBrown" x="-30%" y="-30%" width="160%" height="160%">
      <feMorphology in="SourceAlpha" operator="dilate" radius="2" result="d"/>
      <feFlood flood-color="#B57B45"/>
      <feComposite in2="d" operator="in" result="o"/>
      <feMerge>
        <feMergeNode in="o"/>
        <feMergeNode in="SourceGraphic"/>
      </feMerge>
    </filter>
  </defs>

  <g transform="translate(50 50) scale(1.06) translate(-50 -48)">
  <g filter="url(#olBrown)">
    <path d="M46 48 C45.5 62 45 77 34 92 C40 88 46 88 50 88 C54 88 60 88 66 92 C55 77 54.5 62 54 48 Z" fill="url(#trunkGrad)"/>
  </g>

  <g filter="url(#olGreen)">
    <circle cx="50" cy="25" r="20.5" fill="#163C11"/>
    <circle cx="50" cy="43" r="14" fill="#163C11"/>
    <circle cx="31" cy="47" r="19" fill="#163C11"/>
    <circle cx="69" cy="47" r="19" fill="#163C11"/>
  </g>
  </g>

  <!-- "waiting for you" alert badge (top-right), white-ringed so it reads at tab size -->
  <circle cx="76" cy="24" r="22" fill="#0f0e0c"/>
  <circle cx="76" cy="24" r="17" fill="#dc4040" stroke="#ffffff" stroke-width="3"/>
</svg>
